# xmcd
#
# Track frame offsets:
#	150
#	19870
#	39592
#	56047
#	76277
#	95060
#	116655
#	135777
#	155392
#	170920
#	193082
#	217337
#	241700
#	261492
#	279940
#	295697
#
# Disc length: 4214 seconds
# Revision: 1
# Processed by: cddbd v1.5.2PL0 Copyright (c) Steve Scherf et al.
# Submitted via: dBpowerAMP V12.0
#
DISCID=e9107410
DTITLE=Long John Baldry - Silent Treatment
DYEAR=1987
DGENRE=Blues
TTITLE0=Silent Treatment
TTITLE1=This Is Japan
TTITLE2=Ain't That Peculiar
TTITLE3=Ain't No Love in the Heart of the City
TTITLE4=Carnival
TTITLE5=When the World Doesn't Love Youi
TTITLE6=Here Comes Another Fool
TTITLE7=Our Love Is in Limbo
TTITLE8=The Sun Ain't Gonna Shine Anymmore
TTITLE9=A Life of Blues
TTITLE10=Going Down Slow
TTITLE11=I Got My Mojo Working
TTITLE12=Spoonful
TTITLE13=Rake and Rambling Boy
TTITLE14=Black Girl
TTITLE15=Good Morning Blues
EXTD=
EXTT0=
EXTT1=
EXTT2=
EXTT3=
EXTT4=
EXTT5=
EXTT6=
EXTT7=
EXTT8=
EXTT9=
EXTT10=
EXTT11=
EXTT12=
EXTT13=
EXTT14=
EXTT15=
PLAYORDER=
